<?xml version="1.0" encoding="UTF-8" standalone="no"?>
<svg
   viewBox="0 0 48 48"
   version="1.1"
   id="svg4"
   sodipodi:docname="favicon.svg"
   inkscape:version="1.3.2 (091e20ef0f, 2023-11-25)"
   xmlns:inkscape="http://www.inkscape.org/namespaces/inkscape"
   xmlns:sodipodi="http://sodipodi.sourceforge.net/DTD/sodipodi-0.dtd"
   xmlns="http://www.w3.org/2000/svg"
   xmlns:svg="http://www.w3.org/2000/svg">
  <sodipodi:namedview
     id="namedview4"
     pagecolor="#505050"
     bordercolor="#eeeeee"
     borderopacity="1"
     inkscape:showpageshadow="0"
     inkscape:pageopacity="0"
     inkscape:pagecheckerboard="0"
     inkscape:deskcolor="#505050"
     inkscape:zoom="5.6568542"
     inkscape:cx="15.821514"
     inkscape:cy="17.500893"
     inkscape:window-width="2048"
     inkscape:window-height="1080"
     inkscape:window-x="0"
     inkscape:window-y="0"
     inkscape:window-maximized="1"
     inkscape:current-layer="g3" />
  <defs
     id="defs2">
    <linearGradient
       gradientTransform="matrix(.63636 0 0 .62142-252.21-311.09)"
       gradientUnits="userSpaceOnUse"
       y2="507.8"
       x2="0"
       y1="542.8"
       id="0">
      <stop
         stop-color="#252525"
         id="stop1" />
      <stop
         offset="1"
         stop-color="#4c4c4c"
         id="stop2" />
    </linearGradient>
  </defs>
  <g
     transform="matrix(1.71427 0 0 1.71427 10.649-1.748)"
     enable-background="new"
     id="g4"
     style="stroke-width:0.9998425;stroke-dasharray:none">
    <rect
       width="28"
       height="21.13"
       x="-6.211"
       y="4.461"
       fill="url(#0)"
       rx=".994"
       id="rect2"
       style="stroke-width:0.9998425;stroke-dasharray:none" />
    <g
       fill="#32ff4d"
       stroke="#35d04a"
       stroke-linejoin="round"
       fill-opacity=".751"
       stroke-linecap="round"
       stroke-width=".175"
       id="g3"
       style="stroke-width:0.9998425;stroke-dasharray:none">
      <path
         d="m5.085 13.1c-.031-.029-.07-.044-.118-.044h-4.923c-.048 0-.087.015-.118.044-.031.029-.046.067-.046.112v.312c0 .046.015.083.046.112.031.029.07.044.118.044h4.923c.048 0 .087-.015.118-.044.031-.029.046-.067.046-.112v-.312c0-.046-.015-.083-.046-.112z"
         id="path2"
         style="fill:#aa0000;stroke:#aa0000;stroke-opacity:1;stroke-width:0.58333868;stroke-dasharray:none;fill-opacity:1" />
      <path
         d="m-2.792 8.489c-.034-.033-.074-.049-.118-.049-.044 0-.084.016-.118.049l-.256.244c-.034.033-.051.07-.051.112 0 .042.017.08.051.112l2.02 1.917-2.02 1.918c-.034.033-.051.07-.051.112 0 .042.017.08.051.112l.256.244c.034.033.073.049.118.049.044 0 .084-.016.118-.049l2.39-2.274c.034-.033.051-.07.051-.112 0-.042-.017-.08-.051-.112l-2.39-2.274z"
         id="path3"
         style="fill:#aa0000;fill-opacity:1;stroke:#aa0000;stroke-opacity:1;stroke-width:0.58333868;stroke-dasharray:none" />
    </g>
  </g>
</svg>
